<svg xmlns="http://www.w3.org/2000/svg" viewBox="0 0 1440 100" preserveAspectRatio="none">
  <defs>
    <linearGradient id="wave-gradient" x1="0%" y1="0%" x2="100%" y2="0%">
      <stop offset="0%" stop-color="#f8f9fa"/>
      <stop offset="50%" stop-color="#f1f3f5"/>
      <stop offset="100%" stop-color="#f8f9fa"/>
    </linearGradient>
  </defs>
  
  <path 
    fill="url(#wave-gradient)" 
    d="M0,0 
       C150,40 300,50 450,40 
       C600,30 750,10 900,20 
       C1050,30 1290,80 1440,50 
       L1440,100 L0,100 Z">
  </path>
  
  <path 
    fill="#f8f9fa" 
    opacity="0.7"
    d="M0,30 
       C240,10 480,60 720,40 
       C960,20 1200,70 1440,30 
       L1440,100 L0,100 Z">
  </path>
  
  <path 
    fill="#f8f9fa" 
    d="M0,60 
       C360,40 720,80 1080,60 
       C1260,50 1350,70 1440,65 
       L1440,100 L0,100 Z">
  </path>
</svg>
